<mxfile host="app.diagrams.net" modified="2021-12-03T13:08:35.136Z" agent="5.0 (Windows NT 10.0; Win64; x64) AppleWebKit/537.36 (KHTML, like Gecko) Chrome/96.0.4664.45 Safari/537.36" etag="M1g5eW7MKIr5VGDnVw-4" version="15.8.9" type="github">
  <diagram id="296Wmk6omoyn7l4mUr7B" name="Page-1">
    <mxGraphModel dx="1185" dy="588" grid="1" gridSize="10" guides="1" tooltips="1" connect="1" arrows="1" fold="1" page="1" pageScale="1" pageWidth="850" pageHeight="1100" math="0" shadow="0">
      <root>
        <mxCell id="0" />
        <mxCell id="1" parent="0" />
        <mxCell id="XR2YyGoq3q1wKr2OyNPq-9" value="" style="rounded=0;whiteSpace=wrap;html=1;" vertex="1" parent="1">
          <mxGeometry x="280" y="80" width="290" height="160" as="geometry" />
        </mxCell>
        <mxCell id="XR2YyGoq3q1wKr2OyNPq-10" value="" style="rounded=0;whiteSpace=wrap;html=1;" vertex="1" parent="1">
          <mxGeometry x="290" y="90" width="270" height="140" as="geometry" />
        </mxCell>
        <mxCell id="XR2YyGoq3q1wKr2OyNPq-12" value="" style="endArrow=none;html=1;rounded=0;" edge="1" parent="1">
          <mxGeometry width="50" height="50" relative="1" as="geometry">
            <mxPoint x="290" y="120" as="sourcePoint" />
            <mxPoint x="560" y="120" as="targetPoint" />
          </mxGeometry>
        </mxCell>
        <mxCell id="XR2YyGoq3q1wKr2OyNPq-13" value="PILIH TOPIK" style="text;html=1;strokeColor=none;fillColor=none;align=center;verticalAlign=middle;whiteSpace=wrap;rounded=0;" vertex="1" parent="1">
          <mxGeometry x="370" y="90" width="110" height="30" as="geometry" />
        </mxCell>
        <mxCell id="XR2YyGoq3q1wKr2OyNPq-14" value="" style="rounded=0;whiteSpace=wrap;html=1;" vertex="1" parent="1">
          <mxGeometry x="300" y="130" width="250" height="40" as="geometry" />
        </mxCell>
        <mxCell id="XR2YyGoq3q1wKr2OyNPq-15" value="" style="triangle;whiteSpace=wrap;html=1;rotation=90;" vertex="1" parent="1">
          <mxGeometry x="515" y="135" width="20" height="30" as="geometry" />
        </mxCell>
        <mxCell id="XR2YyGoq3q1wKr2OyNPq-16" value="LAPORAN" style="rounded=0;whiteSpace=wrap;html=1;fontSize=18;" vertex="1" parent="1">
          <mxGeometry x="370" y="180" width="110" height="40" as="geometry" />
        </mxCell>
        <mxCell id="XR2YyGoq3q1wKr2OyNPq-17" value="" style="rounded=0;whiteSpace=wrap;html=1;fontSize=18;" vertex="1" parent="1">
          <mxGeometry x="190" y="280" width="470" height="250" as="geometry" />
        </mxCell>
        <mxCell id="XR2YyGoq3q1wKr2OyNPq-18" value="" style="rounded=0;whiteSpace=wrap;html=1;fontSize=18;" vertex="1" parent="1">
          <mxGeometry x="200" y="290" width="450" height="230" as="geometry" />
        </mxCell>
        <mxCell id="XR2YyGoq3q1wKr2OyNPq-19" value="" style="endArrow=none;html=1;rounded=0;fontSize=18;" edge="1" parent="1">
          <mxGeometry width="50" height="50" relative="1" as="geometry">
            <mxPoint x="650" y="320" as="sourcePoint" />
            <mxPoint x="200" y="320" as="targetPoint" />
          </mxGeometry>
        </mxCell>
        <mxCell id="XR2YyGoq3q1wKr2OyNPq-20" value="&lt;font style=&quot;font-size: 18px&quot;&gt;LAPORAN&lt;/font&gt;" style="text;html=1;strokeColor=none;fillColor=none;align=center;verticalAlign=middle;whiteSpace=wrap;rounded=0;" vertex="1" parent="1">
          <mxGeometry x="370" y="290" width="110" height="30" as="geometry" />
        </mxCell>
        <mxCell id="XR2YyGoq3q1wKr2OyNPq-53" value="" style="rounded=0;whiteSpace=wrap;html=1;fontSize=18;" vertex="1" parent="1">
          <mxGeometry x="210" y="330" width="430" height="30" as="geometry" />
        </mxCell>
        <mxCell id="XR2YyGoq3q1wKr2OyNPq-54" value="idpelajar" style="rounded=0;whiteSpace=wrap;html=1;fontSize=12;" vertex="1" parent="1">
          <mxGeometry x="210" y="330" width="70" height="30" as="geometry" />
        </mxCell>
        <mxCell id="XR2YyGoq3q1wKr2OyNPq-55" value="namapelajar" style="rounded=0;whiteSpace=wrap;html=1;fontSize=12;" vertex="1" parent="1">
          <mxGeometry x="280" y="330" width="100" height="30" as="geometry" />
        </mxCell>
        <mxCell id="XR2YyGoq3q1wKr2OyNPq-56" value="kelas" style="rounded=0;whiteSpace=wrap;html=1;fontSize=12;" vertex="1" parent="1">
          <mxGeometry x="380" y="330" width="70" height="30" as="geometry" />
        </mxCell>
        <mxCell id="XR2YyGoq3q1wKr2OyNPq-57" value="peratus" style="rounded=0;whiteSpace=wrap;html=1;fontSize=12;" vertex="1" parent="1">
          <mxGeometry x="530" y="330" width="110" height="30" as="geometry" />
        </mxCell>
        <mxCell id="XR2YyGoq3q1wKr2OyNPq-58" value="tarikh" style="rounded=0;whiteSpace=wrap;html=1;fontSize=12;" vertex="1" parent="1">
          <mxGeometry x="450" y="330" width="80" height="30" as="geometry" />
        </mxCell>
        <mxCell id="XR2YyGoq3q1wKr2OyNPq-60" value="" style="rounded=0;whiteSpace=wrap;html=1;fontSize=12;" vertex="1" parent="1">
          <mxGeometry x="530" y="360" width="110" height="30" as="geometry" />
        </mxCell>
        <mxCell id="XR2YyGoq3q1wKr2OyNPq-61" value="" style="rounded=0;whiteSpace=wrap;html=1;fontSize=12;" vertex="1" parent="1">
          <mxGeometry x="450" y="360" width="80" height="30" as="geometry" />
        </mxCell>
        <mxCell id="XR2YyGoq3q1wKr2OyNPq-62" value="" style="rounded=0;whiteSpace=wrap;html=1;fontSize=12;" vertex="1" parent="1">
          <mxGeometry x="380" y="360" width="70" height="30" as="geometry" />
        </mxCell>
        <mxCell id="XR2YyGoq3q1wKr2OyNPq-63" value="" style="rounded=0;whiteSpace=wrap;html=1;fontSize=12;" vertex="1" parent="1">
          <mxGeometry x="280" y="360" width="100" height="30" as="geometry" />
        </mxCell>
        <mxCell id="XR2YyGoq3q1wKr2OyNPq-64" value="" style="rounded=0;whiteSpace=wrap;html=1;fontSize=12;" vertex="1" parent="1">
          <mxGeometry x="210" y="360" width="70" height="30" as="geometry" />
        </mxCell>
        <mxCell id="XR2YyGoq3q1wKr2OyNPq-70" value="" style="rounded=0;whiteSpace=wrap;html=1;fontSize=12;" vertex="1" parent="1">
          <mxGeometry x="210" y="390" width="70" height="30" as="geometry" />
        </mxCell>
        <mxCell id="XR2YyGoq3q1wKr2OyNPq-71" value="" style="rounded=0;whiteSpace=wrap;html=1;fontSize=12;" vertex="1" parent="1">
          <mxGeometry x="280" y="390" width="100" height="30" as="geometry" />
        </mxCell>
        <mxCell id="XR2YyGoq3q1wKr2OyNPq-72" value="" style="rounded=0;whiteSpace=wrap;html=1;fontSize=12;" vertex="1" parent="1">
          <mxGeometry x="380" y="390" width="70" height="30" as="geometry" />
        </mxCell>
        <mxCell id="XR2YyGoq3q1wKr2OyNPq-73" value="" style="rounded=0;whiteSpace=wrap;html=1;fontSize=12;" vertex="1" parent="1">
          <mxGeometry x="450" y="390" width="80" height="30" as="geometry" />
        </mxCell>
        <mxCell id="XR2YyGoq3q1wKr2OyNPq-74" value="" style="rounded=0;whiteSpace=wrap;html=1;fontSize=12;" vertex="1" parent="1">
          <mxGeometry x="530" y="390" width="110" height="30" as="geometry" />
        </mxCell>
        <mxCell id="XR2YyGoq3q1wKr2OyNPq-75" value="" style="rounded=0;whiteSpace=wrap;html=1;fontSize=12;" vertex="1" parent="1">
          <mxGeometry x="210" y="420" width="70" height="30" as="geometry" />
        </mxCell>
        <mxCell id="XR2YyGoq3q1wKr2OyNPq-76" value="" style="rounded=0;whiteSpace=wrap;html=1;fontSize=12;" vertex="1" parent="1">
          <mxGeometry x="280" y="420" width="100" height="30" as="geometry" />
        </mxCell>
        <mxCell id="XR2YyGoq3q1wKr2OyNPq-77" value="" style="rounded=0;whiteSpace=wrap;html=1;fontSize=12;" vertex="1" parent="1">
          <mxGeometry x="380" y="420" width="70" height="30" as="geometry" />
        </mxCell>
        <mxCell id="XR2YyGoq3q1wKr2OyNPq-78" value="" style="rounded=0;whiteSpace=wrap;html=1;fontSize=12;" vertex="1" parent="1">
          <mxGeometry x="450" y="420" width="80" height="30" as="geometry" />
        </mxCell>
        <mxCell id="XR2YyGoq3q1wKr2OyNPq-79" value="" style="rounded=0;whiteSpace=wrap;html=1;fontSize=12;" vertex="1" parent="1">
          <mxGeometry x="530" y="420" width="110" height="30" as="geometry" />
        </mxCell>
        <mxCell id="XR2YyGoq3q1wKr2OyNPq-80" value="" style="rounded=0;whiteSpace=wrap;html=1;fontSize=12;" vertex="1" parent="1">
          <mxGeometry x="210" y="450" width="70" height="30" as="geometry" />
        </mxCell>
        <mxCell id="XR2YyGoq3q1wKr2OyNPq-81" value="" style="rounded=0;whiteSpace=wrap;html=1;fontSize=12;" vertex="1" parent="1">
          <mxGeometry x="280" y="450" width="100" height="30" as="geometry" />
        </mxCell>
        <mxCell id="XR2YyGoq3q1wKr2OyNPq-82" value="" style="rounded=0;whiteSpace=wrap;html=1;fontSize=12;" vertex="1" parent="1">
          <mxGeometry x="380" y="450" width="70" height="30" as="geometry" />
        </mxCell>
        <mxCell id="XR2YyGoq3q1wKr2OyNPq-83" value="" style="rounded=0;whiteSpace=wrap;html=1;fontSize=12;" vertex="1" parent="1">
          <mxGeometry x="450" y="450" width="80" height="30" as="geometry" />
        </mxCell>
        <mxCell id="XR2YyGoq3q1wKr2OyNPq-84" value="" style="rounded=0;whiteSpace=wrap;html=1;fontSize=12;" vertex="1" parent="1">
          <mxGeometry x="530" y="450" width="110" height="30" as="geometry" />
        </mxCell>
        <mxCell id="XR2YyGoq3q1wKr2OyNPq-85" value="" style="rounded=0;whiteSpace=wrap;html=1;fontSize=12;" vertex="1" parent="1">
          <mxGeometry x="210" y="480" width="70" height="30" as="geometry" />
        </mxCell>
        <mxCell id="XR2YyGoq3q1wKr2OyNPq-86" value="" style="rounded=0;whiteSpace=wrap;html=1;fontSize=12;" vertex="1" parent="1">
          <mxGeometry x="280" y="480" width="100" height="30" as="geometry" />
        </mxCell>
        <mxCell id="XR2YyGoq3q1wKr2OyNPq-87" value="" style="rounded=0;whiteSpace=wrap;html=1;fontSize=12;" vertex="1" parent="1">
          <mxGeometry x="380" y="480" width="70" height="30" as="geometry" />
        </mxCell>
        <mxCell id="XR2YyGoq3q1wKr2OyNPq-88" value="" style="rounded=0;whiteSpace=wrap;html=1;fontSize=12;" vertex="1" parent="1">
          <mxGeometry x="450" y="480" width="80" height="30" as="geometry" />
        </mxCell>
        <mxCell id="XR2YyGoq3q1wKr2OyNPq-89" value="" style="rounded=0;whiteSpace=wrap;html=1;fontSize=12;" vertex="1" parent="1">
          <mxGeometry x="530" y="480" width="110" height="30" as="geometry" />
        </mxCell>
      </root>
    </mxGraphModel>
  </diagram>
</mxfile>
